HIERARCHY
ROOT Hips
{
	OFFSET 0.000000 0.000000 0.000000 
	CHANNELS 6 Xposition Yposition Zposition Zrotation Yrotation Xrotation
	JOINT LeftUpLeg
	{
		OFFSET 1.363060 -1.794630 0.839290 
		CHANNELS 3 Zrotation Yrotation Xrotation
		JOINT LeftLeg
		{
			OFFSET 2.448110 -6.726130 0.000000 
			CHANNELS 3 Zrotation Yrotation Xrotation
			JOINT LeftFoot
			{
				OFFSET 2.562200 -7.039590 0.000000 
				CHANNELS 3 Zrotation Yrotation Xrotation
				JOINT LeftToeBase
				{
					OFFSET 0.157640 -0.433110 2.322550 
					CHANNELS 3 Zrotation Yrotation Xrotation
					End Site
					{
						OFFSET 0.000000 0.000000 0.000000 
					}
				}
			}
		}
	}
	JOINT RightUpLeg
	{
		OFFSET -1.305520 -1.794630 0.839290 
		CHANNELS 3 Zrotation Yrotation Xrotation
		JOINT RightLeg
		{
			OFFSET -2.542530 -6.985550 0.000000 
			CHANNELS 3 Zrotation Yrotation Xrotation
			JOINT RightFoot
			{
				OFFSET -2.568260 -7.056230 0.000000 
				CHANNELS 3 Zrotation Yrotation Xrotation
				JOINT RightToeBase
				{
					OFFSET -0.164730 -0.452590 2.363150 
					CHANNELS 3 Zrotation Yrotation Xrotation
					End Site
					{
						OFFSET 0.000000 0.000000 0.000000 
					}
				}
			}
		}
	}
	JOINT Spine
	{
		OFFSET 0.028270 2.035590 -0.193380 
		CHANNELS 3 Zrotation Yrotation Xrotation
		JOINT Spine1
		{
			OFFSET 0.056720 2.048850 -0.042750 
			CHANNELS 3 Zrotation Yrotation Xrotation
			JOINT Neck1
			{
				OFFSET -0.054170 1.746240 0.172020 
				CHANNELS 3 Zrotation Yrotation Xrotation
				JOINT Head
				{
					OFFSET 0.104070 1.761360 -0.123970 
					CHANNELS 3 Zrotation Yrotation Xrotation
					End Site
					{
						OFFSET 0.000000 0.000000 0.000000 
					}
				}
			}
			JOINT LeftArm
			{
				OFFSET 3.362410 1.200890 -0.311210 
				CHANNELS 3 Zrotation Yrotation Xrotation
				JOINT LeftForeArm
				{
					OFFSET 4.983000 -0.000000 -0.000000 
					CHANNELS 3 Zrotation Yrotation Xrotation
					JOINT LeftHand
					{
						OFFSET 3.483560 -0.000000 -0.000000 
						CHANNELS 3 Zrotation Yrotation Xrotation
						JOINT LeftHandIndex1
						{
							OFFSET 0.715260 -0.000000 -0.000000 
							CHANNELS 3 Zrotation Yrotation Xrotation
							End Site
							{
								OFFSET 0.000000 0.000000 0.000000 
							}
						}
					}
				}
			}
			JOINT RightArm
			{
				OFFSET -3.136600 1.374050 -0.404650 
				CHANNELS 3 Zrotation Yrotation Xrotation
				JOINT RightForeArm
				{
					OFFSET -5.241900 -0.000000 -0.000000 
					CHANNELS 3 Zrotation Yrotation Xrotation
					JOINT RightHand
					{
						OFFSET -3.444170 -0.000000 -0.000000 
						CHANNELS 3 Zrotation Yrotation Xrotation
						JOINT RightHandIndex1
						{
							OFFSET -0.622530 -0.000000 -0.000000 
							CHANNELS 3 Zrotation Yrotation Xrotation
							End Site
							{
								OFFSET 0.000000 0.000000 0.000000 
							}
						}
					}
				}
			}
		}
	}
}
MOTION
Frames: 10
Frame Time: 0.041667
10.212651 19.687782 -21.432061 38.055402 -80.973485 -26.952821 -42.916718 -9.365225 2.696404 8.264385 9.898776 38.657257 -5.619733 -22.988001 7.497555 6.294800 -14.708100 -46.153700 12.118457 30.356563 -67.699251 -14.162256 -18.889418 73.889821 -1.464728 -0.195368 -28.045860 -0.143300 2.439900 -6.722900 1.855949 -0.576902 6.340651 3.864651 0.114907 -4.255849 -19.858792 23.783496 8.867807 -7.645300 10.378500 10.277700 -84.466663 13.033020 35.638208 46.011463 -51.994507 -19.154698 -0.553490 1.719409 -11.687174 -7.125000 0.000000 0.000000 78.128564 -3.265872 27.700296 -25.570370 34.844599 -6.182735 -0.923384 0.934508 -4.633855 7.125000 0.000000 0.000000 
10.086328 19.731040 -21.452198 38.990095 -80.837637 -27.542541 -42.397359 -8.698481 1.337655 8.542137 10.213715 39.704812 -5.846444 -23.790569 9.177970 5.869400 -14.300600 -44.455200 12.381827 30.203371 -67.354242 -14.144601 -18.913411 73.768925 -1.545425 -0.923975 -27.962927 -0.468200 4.388900 -12.173500 1.785166 -0.714365 6.207805 3.851768 0.037540 -4.291103 -19.926958 23.968641 8.982247 -7.672100 10.471000 10.400300 -84.166518 13.420774 36.504816 44.782167 -51.504079 -18.466321 1.629750 3.361915 -12.367820 -7.125000 0.000000 0.000000 78.226151 -3.196482 27.891796 -25.874191 35.207533 -6.339413 -0.876191 0.954199 -4.861913 7.125000 0.000000 0.000000 
9.960845 19.768051 -21.462266 39.755353 -80.848160 -27.824792 -43.646944 -12.040768 1.467404 8.633354 10.597607 41.196738 -4.981249 -21.025838 8.244146 5.202500 -13.608200 -41.690200 12.847359 29.910505 -67.018007 -14.099463 -18.959555 73.572944 -1.632748 -1.127467 -28.669184 -0.434900 4.231800 -11.729800 2.143007 -0.839674 6.129067 4.270532 -0.008940 -4.160726 -20.233699 24.225610 8.943732 -7.676400 10.554600 10.416500 -84.475156 13.642344 37.151334 43.659178 -50.842671 -17.734692 2.233158 3.638738 -13.276047 -7.125000 0.000000 0.000000 77.577478 -3.087546 28.498673 -26.300278 35.678579 -6.554804 -0.844847 0.935135 -5.606832 7.125000 0.000000 0.000000 
9.837878 19.812147 -21.479513 41.296392 -80.765062 -29.072228 -44.138160 -13.107172 0.874469 8.805879 11.004331 42.726434 -4.522524 -19.604014 8.104367 6.317100 -14.728700 -46.241300 12.559666 29.991616 -66.627398 -14.082268 -18.913292 73.597358 -1.472317 0.341323 -28.960854 -0.215200 2.986200 -8.240200 2.069292 -0.938560 6.117016 4.276883 -0.071251 -4.061493 -20.336825 24.503443 9.018403 -7.698800 10.691100 10.565200 -84.494112 13.784803 37.458664 42.532303 -50.147857 -16.907491 1.930302 3.579707 -14.369711 -7.125000 0.000000 0.000000 77.422583 -2.903237 28.663453 -26.615733 36.049589 -6.727318 -0.846544 0.908333 -5.980923 7.125000 0.000000 0.000000 
9.721251 19.833030 -21.502074 42.906576 -80.612839 -30.523819 -43.892171 -12.625549 -0.472039 9.104530 11.493201 44.532152 -4.442080 -19.512902 8.491444 6.743800 -15.112300 -47.898700 13.051943 29.826455 -66.114865 -14.067187 -18.955750 73.444488 -1.667131 -0.725336 -29.583118 -0.350400 3.803500 -10.524600 1.938133 -0.853047 6.071718 4.329431 -0.040839 -4.120717 -20.389402 24.485626 9.197954 -7.764800 10.689700 10.672600 -84.664798 13.815368 37.553865 41.063601 -49.197552 -15.845163 1.677633 3.564548 -15.090019 -7.125000 0.000000 0.000000 77.405447 -2.903926 28.507527 -26.968887 36.458089 -6.923387 -0.876556 0.873918 -6.281635 7.125000 0.000000 0.000000 
9.603878 19.875169 -21.515219 42.816277 -80.735636 -30.280328 -43.794256 -13.394519 -1.515717 9.411969 12.047793 46.700081 -4.100930 -18.518667 8.180516 7.091200 -15.408200 -49.218400 13.425429 29.973482 -65.298070 -14.011066 -18.904325 73.257779 -1.594515 0.194893 -30.007519 -0.227200 3.068300 -8.469000 1.784419 -0.771361 6.035593 4.024361 -0.001671 -4.178147 -20.464357 24.472902 9.314116 -7.860600 10.703300 10.771500 -83.802159 13.971132 39.213458 40.206014 -48.604218 -15.327501 2.410578 3.863845 -16.525650 -7.125000 0.000000 0.000000 77.513075 -2.997600 28.671220 -27.403506 36.949390 -7.180027 -0.953204 0.829617 -6.832697 7.125000 0.000000 0.000000 
9.491167 19.903230 -21.517550 41.201603 -81.151458 -28.694917 -42.634349 -12.504839 -3.277120 9.852612 12.645344 49.044857 -4.113748 -18.759105 8.382319 7.387000 -15.649300 -50.323100 14.508237 30.204859 -64.168584 -13.969571 -18.872598 73.011809 -1.634404 0.158487 -30.344369 -0.313700 3.600700 -9.955900 1.863217 -0.774231 6.099937 3.698090 0.001338 -4.107876 -20.699835 24.670432 9.312415 -7.945600 10.796800 10.887100 -83.928119 14.022045 39.038475 39.137545 -47.848062 -14.539944 2.138754 3.862826 -15.688978 -7.125000 0.000000 0.000000 77.524109 -2.940905 28.916389 -27.795236 37.391019 -7.415245 -1.023108 0.792853 -7.038588 7.125000 0.000000 0.000000 
9.383116 19.947606 -21.509159 33.679197 -82.369269 -21.332862 -41.524599 -14.243741 -4.195793 10.269869 13.313920 51.823211 -3.558352 -16.947300 7.401805 7.138900 -15.447800 -49.397700 17.418604 30.645946 -62.045254 -13.851308 -18.828468 72.374037 -1.694002 0.081329 -30.768529 -0.331400 3.699700 -10.233400 2.134430 -0.576396 6.278816 2.702963 0.136166 -4.015920 -20.858123 24.780524 9.337518 -8.019200 10.843800 11.019700 -84.244502 13.932789 38.487179 37.999071 -47.011639 -13.707785 1.916126 3.912318 -14.014463 -7.125000 0.000000 0.000000 77.755604 -2.809464 28.777379 -28.171942 37.814216 -7.628206 -0.999062 0.780882 -6.919056 7.125000 0.000000 0.000000 
9.284296 19.967836 -21.529576 39.313886 -81.655089 -26.520634 -42.374680 -15.167931 -5.746153 10.711720 13.931611 54.461826 -3.352496 -16.535249 7.367670 7.104200 -15.419000 -49.267400 16.189399 30.151995 -62.481961 -13.842655 -18.852853 72.432588 -1.682954 0.264875 -30.981325 -0.334300 3.715700 -10.278200 1.945055 -0.861241 6.066308 3.293336 -0.020125 -4.186115 -21.118350 25.019685 9.342061 -8.096200 10.963700 11.091000 -84.530258 14.094849 38.291257 37.076809 -46.278992 -13.080672 2.546227 4.331973 -14.480917 -7.125000 0.000000 0.000000 77.391333 -2.802033 29.308153 -28.590511 38.247963 -7.854142 -0.918248 0.765797 -7.181932 7.125000 0.000000 0.000000 
9.184543 19.992355 -21.520813 34.539311 -82.217589 -21.722062 -40.054597 -13.607701 -8.489158 11.391253 14.598660 57.272302 -3.827210 -18.475341 8.016058 7.044700 -15.369500 -49.043300 17.892450 30.253807 -61.246754 -13.765482 -18.829806 72.041917 -1.709577 0.370569 -31.331800 -0.326300 3.671300 -10.153800 2.166307 -0.884454 6.090313 2.777265 -0.009994 -4.136919 -21.257388 25.195856 9.277767 -8.117200 11.045900 11.119500 -84.457038 14.205973 38.498469 36.255721 -45.647276 -12.545285 2.118823 4.032259 -14.275165 -7.125000 0.000000 0.000000 77.251161 -2.637975 29.589439 -28.926201 38.603222 -8.043234 -0.874775 0.754560 -7.344133 7.125000 0.000000 0.000000 
